<svg height="11.29" viewBox="0 0 63.617 11.29" width="63.617" xmlns="http://www.w3.org/2000/svg"><g fill="#fff"><path d="m9.17 12.909h-6.662a1.258 1.258 0 0 1 -1.258-1.258v-.041l5.89-8h-4.5a1.3 1.3 0 0 1 -1.3-1.3v-.15h6.54a1.217 1.217 0 0 1 1.213 1.2v.047l-5.893 8.038h4.662a1.3 1.3 0 0 1 1.3 1.3v.155z" transform="translate(-1.25 -1.891)"/><path d="m33.923 12.54a5.824 5.824 0 0 1 -2.25-.424 5.452 5.452 0 0 1 -1.767-1.178 5.328 5.328 0 0 1 -1.178-1.791 6 6 0 0 1 -.418-2.247 6.01 6.01 0 0 1 .418-2.25 5.27 5.27 0 0 1 2.945-2.966 6.187 6.187 0 0 1 4.5 0 5.433 5.433 0 0 1 1.767 1.178 5.322 5.322 0 0 1 1.178 1.791 6.01 6.01 0 0 1 .418 2.25 5.992 5.992 0 0 1 -.418 2.247 5.317 5.317 0 0 1 -1.178 1.791 5.5 5.5 0 0 1 -1.767 1.178 5.852 5.852 0 0 1 -2.25.421zm0-9.828a3.905 3.905 0 0 0 -1.614.327 3.817 3.817 0 0 0 -1.258.884 4.092 4.092 0 0 0 -.819 1.331 4.683 4.683 0 0 0 0 3.269 4.12 4.12 0 0 0 .819 1.331 3.794 3.794 0 0 0 1.258.884 4.146 4.146 0 0 0 3.24 0 3.827 3.827 0 0 0 1.258-.884 4.088 4.088 0 0 0 .819-1.331 4.683 4.683 0 0 0 0-3.269 4.092 4.092 0 0 0 -.819-1.331 3.806 3.806 0 0 0 -1.258-.884 3.893 3.893 0 0 0 -1.626-.327z" transform="translate(-20.34 -1.257)"/><path d="m145.345 12.9h-.08l-5.855-8.389v7a1.393 1.393 0 0 1 -1.39 1.393h-.15v-9.038a1.72 1.72 0 0 1 1.717-1.717h.08l5.852 8.391v-7a1.39 1.39 0 0 1 1.39-1.39h.15v9.036a1.72 1.72 0 0 1 -1.714 1.714z" transform="translate(-97.632 -1.884)"/><path d="m178.13 12.882h-.15a1.393 1.393 0 0 1 -1.39-1.393v-9.36h.15a1.393 1.393 0 0 1 1.39 1.39z" transform="translate(-124.948 -1.87)"/><path d="m191.377 7.527 3.679-5.051-.124-.088a1.59 1.59 0 0 0 -2.144.589l-2.356 3.24-2.356-3.24a1.589 1.589 0 0 0 -2.15-.6l-.124.088 3.658 5.065-3.67 5.063.124.088a1.177 1.177 0 0 0 .7.224 1.519 1.519 0 0 0 .406-.059 1.975 1.975 0 0 0 1.031-.748l2.356-3.24 2.356 3.257a1.965 1.965 0 0 0 1.034.748 1.54 1.54 0 0 0 .409.059 1.177 1.177 0 0 0 .7-.224l.124-.088z" transform="translate(-131.439 -1.887)"/><path d="m77.78 7.236v3.3a5.074 5.074 0 0 1 -1.152.395 4.977 4.977 0 0 1 -3-.162 3.851 3.851 0 0 1 -1.314-.884 4.069 4.069 0 0 1 -.854-1.331 4.5 4.5 0 0 1 -.295-1.67 4.539 4.539 0 0 1 .301-1.684 3.924 3.924 0 0 1 .854-1.3 4.026 4.026 0 0 1 1.287-.884 4.125 4.125 0 0 1 3.107 0 4.265 4.265 0 0 1 .4.191 1.6 1.6 0 0 0 1.944-.268l.147-.153-.1-.106a4.421 4.421 0 0 0 -1.767-1.1 6.51 6.51 0 0 0 -2.029-.333 6.169 6.169 0 0 0 -2.253.409 5.771 5.771 0 0 0 -1.85 1.144 5.306 5.306 0 0 0 -1.24 1.767 5.8 5.8 0 0 0 -.448 2.312 6.013 6.013 0 0 0 .437 2.321 5.172 5.172 0 0 0 1.178 1.785 5.394 5.394 0 0 0 1.841 1.143 6.277 6.277 0 0 0 2.3.409 8.884 8.884 0 0 0 2.062-.239 7.532 7.532 0 0 0 1.911-.742l.077-.044v-3.961c-.534-.117-1.049-.217-1.544-.315z" transform="translate(-49.412 -1.249)"/><path d="m110.863 7.278v-3.667h4.037a1.3 1.3 0 0 0 1.3-1.3v-.15h-6.88v4.866c.512.104 1.025.195 1.543.251z" transform="translate(-77.491 -1.891)"/><path d="m115.145 26.714h-4.291v-2.79a9.473 9.473 0 0 1 -1.075-.082h-.05c-.141-.015-.295-.035-.418-.053v4.377h7.136v-.15a1.3 1.3 0 0 0 -1.3-1.3z" transform="translate(-77.484 -17.151)"/><path d="m80.96 16.246a5.271 5.271 0 0 0 -.769.642c-.138.141.015.433.186.356 1.985-1.473 5.092-.041 8.771.38h.05c3.337.377 4.924-.442 6.48-2.259.124-.144-.027-.448-.183-.356-4.989 3.808-10.105-1.782-14.535 1.237" transform="translate(-56.903 -10.945)"/></g></svg>